<?xml version="1.0" standalone="no"?><!DOCTYPE svg PUBLIC "-//W3C//DTD SVG 1.1//EN" "http://www.w3.org/Graphics/SVG/1.1/DTD/svg11.dtd"><svg class="icon" width="200px" height="200.00px" viewBox="0 0 1024 1024" version="1.1" xmlns="http://www.w3.org/2000/svg"><path fill="#cdcdcd" d="M1016.203605 926.586387 918.789992 1024 792.91816 898.128168C711.455475 956.807748 611.755287 991.767554 503.680172 991.767554 229.814582 991.767554 7.796395 769.749368 7.796395 495.883777 7.796395 222.018187 229.814582 0 503.680172 0 777.545763 0 999.563949 222.018187 999.563949 495.883777 999.563949 611.94813 959.369814 718.480495 892.56325 802.973581L1016.203605 926.586387ZM503.680172 110.196395C290.670541 110.196395 117.99279 282.874146 117.99279 495.883777 117.99279 708.893409 290.670541 881.57116 503.680172 881.57116 716.689804 881.57116 889.367554 708.893409 889.367554 495.883777 889.367554 282.874146 716.689804 110.196395 503.680172 110.196395Z" /></svg>